<svg xmlns="http://www.w3.org/2000/svg" version="1.0" width="1280.000000pt" height="1280.000000pt" viewBox="0 0 1280.000000 1280.000000" preserveAspectRatio="xMidYMid meet">
<metadata fill="#ffffff">
Created by potrace 1.16, written by Peter Selinger 2001-2019
</metadata>
<g transform="translate(0.000000,1280.000000) scale(0.100000,-0.100000)" fill="#ffffff" stroke="none">
<path d="M6312 9242 c-29 -11 -69 -32 -89 -49 -28 -22 -178 -274 -645 -1083 -335 -580 -1002 -1734 -1481 -2565 l-872 -1510 -4 -78 c-3 -68 0 -84 24 -132 32 -67 93 -121 159 -140 74 -22 1158 -22 1233 0 104 31 74 -15 897 1410 817 1415 785 1365 866 1365 81 0 49 50 866 -1365 823 -1426 793 -1379 897 -1410 75 -22 1159 -22 1233 0 66 19 127 73 159 140 24 48 27 64 24 132 l-4 78 -1475 2554 c-811 1405 -1485 2567 -1498 2582 -59 71 -196 104 -290 71z" fill="#ffffff"/>
</g>
</svg>